<svg version="1.0" xmlns="http://www.w3.org/2000/svg" width="15.000000pt" height="15.000000pt" viewBox="0 0 15.000000 15.000000">
<g transform="translate(0.000000,15.000000) scale(0.008333,-0.008571)" fill="#336BFF" stroke="none">
<path d="M664 1725 c-302 -82 -531 -303 -626 -605 -20 -66 -23 -95 -23 -245 0
-150 3 -179 23 -245 87 -277 283 -483 557 -584 77 -29 88 -30 280 -34 l200 -4
95 31 c283 92 492 304 582 591 20 66 23 95 23 245 0 150 -3 179 -23 245 -90
286 -299 499 -580 590 -89 29 -98 30 -275 29 -120 0 -199 -5 -233 -14z m408
-341 c74 -37 151 -120 179 -191 23 -61 36 -178 25 -237 -9 -46 -99 -178 -141
-207 -21 -14 -33 -30 -30 -38 11 -30 229 -371 237 -371 4 0 8 -7 8 -15 0 -13
-21 -15 -130 -15 -97 0 -130 3 -130 13 -1 6 -47 86 -103 177 l-103 165 -217 3
-217 2 0 105 0 105 283 2 282 3 23 45 c39 77 21 250 -27 250 -14 0 -14 2 -1
11 11 8 7 9 -19 5 -18 -3 -96 -6 -172 -6 l-139 0 0 -80 0 -80 -115 0 -115 0 0
190 0 190 285 0 286 0 51 -26z m-392 -969 l0 -105 -115 0 -115 0 0 105 0 105
115 0 115 0 0 -105z"/>
</g>
</svg>
